<?xml version="1.0" encoding="utf-8"?>
<!-- Generator: Adobe Illustrator 24.0.1, SVG Export Plug-In . SVG Version: 6.00 Build 0)  -->
<svg version="1.1" id="Layer_1" xmlns="http://www.w3.org/2000/svg" xmlns:xlink="http://www.w3.org/1999/xlink" x="0px" y="0px"
	 viewBox="0 0 573.6 119.3" style="enable-background:new 0 0 573.6 119.3;" xml:space="preserve">
<style type="text/css">
	.st0{fill:#FFFFFF;}
	.st1{fill:none;}
	.st2{font-family:'Akkurat Pro Regular';}
	.st3{enable-background:new    ;}
</style>
<title>Northwestern_white</title>
<g>
	<g>
		<polygon class="st0" points="2.3,4.9 2.3,7.5 8.8,14.9 8.8,65.3 0,67.8 0,70.7 23.9,70.7 23.9,67.8 16.4,65.8 14.5,63.4 
			14.5,21.3 56.4,71.2 60.1,71.2 60.1,11.2 69,8.5 69,5.4 44.7,5.4 44.7,9 52.4,10.9 54.3,13.2 54.3,53.1 54.3,53.1 53.8,53.1 
			13.1,4.9 		"/>
		<path class="st0" d="M92.1,71.8c-11.8,0-23.2-7.6-23.2-23.8s12-24.2,23.2-24.2c11.6,0,23.4,7.3,23.4,23.4
			C115.5,62.8,103,71.8,92.1,71.8z M106.3,48.6c0-11-6-20.4-15.5-20.4c-8.5,0-12.7,7.4-12.7,18.4s5.3,20.7,15.3,20.7
			C101.8,67.4,106.3,59.7,106.3,48.6z"/>
		<path class="st0" d="M234.5,43.9c0-11-6.2-13.2-13.4-13.2c-3.8,0.1-7.4,1.7-10.1,4.5v28.4l2,2.4l6.4,2.2v2.5h-23v-2.5l6.5-2.5
			V18.2c0-8.6-2.2-11-6.9-11V4.9L210.5,0h1c0,0-0.5,10.2-0.5,17.8v13.7c0,0,9.5-7.6,16-7.6c8.1,0,15.6,3.3,15.6,15.3v24.5l1.9,2.4
			l6.4,2.2v2.5h-23v-2.5l6.3-2.4L234.5,43.9z"/>
		<path class="st0" d="M327.8,45.4c0,13.7,7.8,19.4,16.7,19.4c5.5,0,12.1-2.3,12.1-2.3l1,1.9c-2.4,2.4-9,7.4-17.3,7.4
			c-11.2,0-21.3-8.4-21.3-23.8c0-14,9.7-24.2,21.7-24.2c9.4,0,16.7,5.6,16.7,16.3c0,1.8-0.2,3.5-0.5,5.2L327.8,45.4z M342.3,41.6
			c4.7-0.2,6.4-1.1,6.4-5.9c0-4.1-3-7.3-9.3-7.3c-6.6,0-11.6,5.8-11.6,13.7L342.3,41.6z"/>
		<path class="st0" d="M368.2,70.1c-1.4-0.5-2.4-1.8-2.6-3.4l-0.6-9.4h4.4c1.2,6.4,5.5,10.6,11.1,10.6s8-3,8-6.9
			c0-3.8-3.1-5.7-6.8-7.7l-5-2.6c-7.2-3.7-10.8-6.6-10.8-13.7c0-8.9,6.4-13.1,16.4-13.1c4.3,0,8.5,0.9,12.4,2.7l-1.3,11.5h-4
			c0-7.2-3-9.9-9-9.9c-4,0-7.8,1.6-7.8,5.5c0,3.2,1.3,4.5,9.1,8.6l4.4,2.3c8.1,4.2,10.4,7.6,10.4,14.3c0,8.1-8.1,12.9-16,12.9
			C375.5,71.8,371,71.2,368.2,70.1z"/>
		<path class="st0" d="M445.8,45.4c0,13.7,7.8,19.4,16.7,19.4c5.5,0,12.1-2.3,12.1-2.3l1,1.9c-2.4,2.4-9,7.4-17.3,7.4
			c-11.2,0-21.3-8.4-21.3-23.8c0-14,9.7-24.2,21.7-24.2c9.4,0,16.7,5.6,16.7,16.3c0,1.8-0.2,3.5-0.5,5.2L445.8,45.4z M460.3,41.6
			c4.7-0.2,6.4-1.1,6.4-5.9c0-4.1-3-7.3-9.3-7.3c-6.6,0-11.6,5.8-11.6,13.7L460.3,41.6z"/>
		<path class="st0" d="M567.2,66l-1.9-2.4l0.1-25c0-11.5-7.5-14.8-15.2-14.8c-6.5,0-15.7,7.6-15.7,7.6c0-4.1,0.2-7.9,0.2-7.9h-0.8
			l-14.4,5.2v2.4c5.5,0,7,4.9,7,13.8v20.7l-6.5,2.5v2.6h22.7l0.2-2.5l-6.4-2.2l-1.9-2.4V35.3c2.4-2.9,5.9-4.6,9.7-4.6
			c6.4,0,13,2.3,13,13.2L557,65.8l-6.3,2.4v2.6h22.7l0.2-2.5L567.2,66z"/>
		<path class="st0" d="M293.4,71.2l-10.6-29.3l-12.1,29.3h-4.1l-12-36.2c-1.7-4.5-2.6-7.2-5.8-7.2v-2.7h19.5v2.8l-5.9,1.9l8.9,30
			l7.8-18.8l1.8-4.8l-2.7-7.6l-3.4-0.8V25h18.8v3l-5.9,1.8l10,30L308.1,30l-6.7-2.4V25H319v2.8c-4,0.5-6,1.6-9.2,9.7L298,71.2H293.4
			z"/>
		<path class="st0" d="M190.9,63.9c-2.1,1.2-4.5,1.8-6.9,1.8c-4.4,0-8.5-2.5-8.4-8.6l0.4-25.8h14.8l0.2-1.6l0,0l1-8.1l-1.9-0.4
			l-1.4,3.1l-0.8,0.7l-11.6,0.5h-0.1V13.7l-5.7,1L168,25.8l-8.1,0.8v3.8c4.4,0,8.1,0.4,8.1,4.6s-0.4,17.6-0.4,22.9
			c0,10.1,3.9,13.8,10.3,13.8c5.5,0,10.1-2.3,14.2-5.6L190.9,63.9z"/>
		<path class="st0" d="M432.4,63.9c-2.1,1.2-4.5,1.8-6.9,1.8c-4.4,0-8.5-2.5-8.4-8.6l0.4-25.8h14.6l0.2-1.6l0,0l1-8.1l-1.9-0.4
			l-1.4,3.1l-0.8,0.7l-11.6,0.5l0,0V13.7l-5.7,1l-2.5,11.1l-8.1,0.8v3.8c4.4,0,8.1,0.4,8.1,4.6S409,52.6,409,57.9
			c0,10.1,3.9,13.8,10.3,13.8c5.5,0,10.1-2.3,14.2-5.6L432.4,63.9z"/>
		<path class="st0" d="M154.2,24.5L154.2,24.5c-1.6-0.4-3.3-0.6-4.9-0.6c-6.9,0-14.1,10.8-14.1,10.8c0-6,0.2-11.2,0.2-11.2h-0.8
			l-14.1,5.2v2.4c5.3,0,7,4.8,7,13v21.5l-6.5,2.5v2.6h22.7v-2.5l-6.4-2.2l-1.9-2.4V42.5c0-6.5,5.1-10.2,10.6-10.2
			c1.1,0,2.2,0.2,3.3,0.6l1.5,2.3l1.9,0.2L154.2,24.5L154.2,24.5z"/>
		<path class="st0" d="M515,24.5L515,24.5c-1.6-0.4-3.3-0.6-4.9-0.6c-6.9,0-14.1,10.8-14.1,10.8c0-6,0.2-11.2,0.2-11.2h-0.8
			l-14.1,5.2v2.4c5.3,0,7,4.8,7,13v21.5l-6.5,2.5v2.6h22.7v-2.6l-6.4-2.2l-1.9-2.4v-21c0-6.5,5.1-10.2,10.7-10.2
			c1.1,0,2.2,0.2,3.3,0.6l1.5,2.3l1.9,0.2L515,24.5L515,24.5z"/>
	</g>
	<g>
		<path class="st0" d="M118.5,103.1c0-4.3,1.1-7.6,3.4-10s5.3-3.6,8.9-3.6c2.4,0,4.5,0.6,6.4,1.7s3.4,2.7,4.4,4.8s1.5,4.3,1.5,6.9
			s-0.5,5-1.6,7s-2.5,3.6-4.5,4.7s-4,1.6-6.3,1.6c-2.4,0-4.6-0.6-6.5-1.8s-3.4-2.8-4.3-4.8S118.5,105.3,118.5,103.1z M122,103.1
			c0,3.1,0.8,5.6,2.5,7.3s3.8,2.7,6.3,2.7c2.6,0,4.7-0.9,6.3-2.7s2.5-4.4,2.5-7.7c0-2.1-0.4-3.9-1.1-5.5s-1.7-2.8-3.1-3.6
			s-2.9-1.3-4.6-1.3c-2.4,0-4.5,0.8-6.2,2.5S122,99.2,122,103.1z"/>
		<path class="st0" d="M147.5,115.6V89.8h3.5l13.5,20.2V89.8h3.3v25.8h-3.5l-13.5-20.2v20.2C150.8,115.6,147.5,115.6,147.5,115.6z"
			/>
		<path class="st0" d="M173.4,115.6V89.8h3.4v22.7h12.7v3L173.4,115.6L173.4,115.6z"/>
		<path class="st0" d="M194.1,115.6V89.8h3.4v25.8C197.5,115.6,194.1,115.6,194.1,115.6z"/>
		<path class="st0" d="M203.5,115.6V89.8h3.5l13.5,20.2V89.8h3.3v25.8h-3.5l-13.5-20.2v20.2C206.8,115.6,203.5,115.6,203.5,115.6z"
			/>
		<path class="st0" d="M229.6,115.6V89.8h18.6v3H233v7.9h14.3v3H233v8.8h15.8v3L229.6,115.6L229.6,115.6z"/>
		<path class="st0" d="M263.6,115.6V89.8h9.7c1.7,0,3,0.1,3.9,0.2c1.3,0.2,2.3,0.6,3.2,1.2s1.5,1.4,2.1,2.5s0.8,2.2,0.8,3.5
			c0,2.2-0.7,4-2.1,5.6s-3.9,2.3-7.6,2.3H267v10.5H263.6z M267,102.1h6.7c2.2,0,3.8-0.4,4.7-1.2s1.4-2,1.4-3.5c0-1.1-0.3-2-0.8-2.8
			s-1.3-1.3-2.2-1.5c-0.6-0.2-1.6-0.2-3.2-0.2H267V102.1z"/>
		<path class="st0" d="M282.1,115.6l9.9-25.8h3.7l10.5,25.8h-3.9l-3-7.8h-10.8l-2.8,7.8C285.7,115.6,282.1,115.6,282.1,115.6z
			 M289.5,105h8.7l-2.7-7.1c-0.8-2.2-1.4-3.9-1.8-5.3c-0.3,1.7-0.8,3.3-1.4,4.9L289.5,105z"/>
		<path class="st0" d="M307.7,107.3l3.3-0.3c0.2,1.3,0.5,2.3,1.1,3.2s1.4,1.5,2.6,2s2.5,0.8,4,0.8c1.3,0,2.4-0.2,3.4-0.6
			s1.7-0.9,2.2-1.6s0.7-1.4,0.7-2.2c0-0.8-0.2-1.5-0.7-2.1s-1.2-1.1-2.3-1.5c-0.7-0.3-2.2-0.7-4.6-1.3s-4-1.1-5-1.6
			c-1.2-0.6-2.1-1.4-2.8-2.4s-0.9-2-0.9-3.2c0-1.3,0.4-2.5,1.1-3.6s1.8-2,3.2-2.6s3-0.9,4.7-0.9c1.9,0,3.6,0.3,5.1,0.9
			s2.6,1.5,3.4,2.7s1.2,2.5,1.3,4.1l-3.3,0.2c-0.2-1.6-0.8-2.9-1.8-3.7s-2.5-1.2-4.5-1.2c-2.1,0-3.6,0.4-4.5,1.1s-1.4,1.7-1.4,2.7
			c0,0.9,0.3,1.7,1,2.3c0.7,0.6,2.4,1.2,5.1,1.8s4.7,1.2,5.7,1.6c1.5,0.7,2.6,1.6,3.3,2.6s1.1,2.3,1.1,3.7c0,1.4-0.4,2.7-1.2,3.9
			s-1.9,2.2-3.4,2.8s-3.1,1-5,1c-2.3,0-4.3-0.3-5.9-1s-2.8-1.7-3.7-3.1S307.8,109,307.7,107.3z"/>
		<path class="st0" d="M331.8,107.3l3.2-0.3c0.2,1.3,0.5,2.3,1.1,3.2s1.4,1.5,2.6,2s2.5,0.8,4,0.8c1.3,0,2.4-0.2,3.4-0.6
			s1.7-0.9,2.2-1.6s0.7-1.4,0.7-2.2c0-0.8-0.2-1.5-0.7-2.1s-1.3-1.1-2.3-1.5c-0.7-0.3-2.2-0.7-4.6-1.3s-4-1.1-5-1.6
			c-1.2-0.6-2.1-1.4-2.8-2.4s-0.9-2-0.9-3.2c0-1.3,0.4-2.5,1.1-3.6s1.8-2,3.2-2.6s3-0.9,4.7-0.9c1.9,0,3.6,0.3,5.1,0.9
			s2.6,1.5,3.4,2.7s1.2,2.5,1.3,4.1l-3.3,0.2c-0.2-1.6-0.8-2.9-1.8-3.7s-2.5-1.2-4.5-1.2c-2.1,0-3.6,0.4-4.5,1.1s-1.4,1.7-1.4,2.7
			c0,0.9,0.3,1.7,1,2.3c0.7,0.6,2.4,1.2,5.1,1.8s4.7,1.2,5.7,1.6c1.5,0.7,2.6,1.6,3.3,2.6s1.1,2.3,1.1,3.7c0,1.4-0.4,2.7-1.2,3.9
			s-1.9,2.2-3.4,2.8s-3.1,1-5,1c-2.3,0-4.3-0.3-5.9-1s-2.8-1.7-3.7-3.1S331.8,109,331.8,107.3z"/>
		<path class="st0" d="M356.9,115.6V89.8h9.7c1.7,0,3,0.1,3.9,0.2c1.3,0.2,2.3,0.6,3.2,1.2s1.5,1.4,2.1,2.5s0.8,2.2,0.8,3.5
			c0,2.2-0.7,4-2.1,5.6s-3.9,2.3-7.6,2.3h-6.6v10.5H356.9z M360.3,102.1h6.7c2.2,0,3.8-0.4,4.7-1.2s1.4-2,1.4-3.5
			c0-1.1-0.3-2-0.8-2.8s-1.3-1.3-2.2-1.5c-0.6-0.2-1.6-0.2-3.2-0.2h-6.6V102.1z"/>
		<path class="st0" d="M379.9,103.1c0-4.3,1.1-7.6,3.4-10s5.3-3.6,8.9-3.6c2.4,0,4.5,0.6,6.4,1.7s3.4,2.7,4.4,4.8s1.5,4.3,1.5,6.9
			s-0.5,5-1.6,7s-2.5,3.6-4.5,4.7s-4,1.6-6.3,1.6c-2.4,0-4.6-0.6-6.5-1.8s-3.4-2.8-4.3-4.8S379.9,105.3,379.9,103.1z M383.4,103.1
			c0,3.1,0.8,5.6,2.5,7.3s3.8,2.7,6.3,2.7c2.6,0,4.7-0.9,6.3-2.7s2.5-4.4,2.5-7.7c0-2.1-0.4-3.9-1.1-5.5s-1.7-2.8-3.1-3.6
			s-2.9-1.3-4.6-1.3c-2.4,0-4.5,0.8-6.2,2.5S383.4,99.2,383.4,103.1z"/>
		<path class="st0" d="M409,115.6V89.8h11.4c2.3,0,4,0.2,5.2,0.7s2.2,1.3,2.9,2.5s1.1,2.5,1.1,3.9c0,1.8-0.6,3.4-1.8,4.6
			s-3,2.1-5.5,2.4c0.9,0.4,1.6,0.9,2.1,1.3c1,0.9,1.9,2.1,2.8,3.4l4.5,7h-4.3l-3.4-5.4c-1-1.5-1.8-2.7-2.5-3.6s-1.2-1.4-1.7-1.7
			s-1-0.6-1.6-0.7c-0.4-0.1-1-0.1-1.9-0.1h-4v11.4L409,115.6L409,115.6z M412.4,101.2h7.3c1.6,0,2.8-0.2,3.7-0.5s1.5-0.8,2-1.5
			s0.7-1.5,0.7-2.3c0-1.2-0.4-2.2-1.3-3s-2.3-1.2-4.2-1.2h-8.2V101.2z"/>
		<path class="st0" d="M440.8,115.6V92.9h-8.5v-3h20.4v3h-8.5v22.7C444.2,115.6,440.8,115.6,440.8,115.6z"/>
	</g>
</g>
</svg>
